<svg width="64" height="64" viewBox="0 0 64 64" fill="none" xmlns="http://www.w3.org/2000/svg">
<path d="M31.9998 0.888916C23.7486 0.888916 15.8354 4.16668 10.0009 10.0011C4.16644 15.8356 0.888672 23.7488 0.888672 32C0.89202 32.5929 0.912319 33.1857 0.949542 33.7774L2.72693 32H4.63959L1.12268 35.5169C1.17687 36.0869 1.24679 36.6552 1.33234 37.2213L6.5536 32H8.46626L1.67862 38.7877C1.78245 39.3109 1.89972 39.8314 2.03031 40.3486L10.3789 32H12.2916L2.5078 41.7824C2.65482 42.2655 2.81358 42.745 2.98394 43.2203L14.2069 32H16.1196L3.57234 44.5459C3.75866 44.991 3.9553 45.4316 4.1621 45.8675L18.0322 32H19.9449L4.84114 47.1011C5.0642 47.5112 5.29646 47.9162 5.53775 48.3158L21.8576 32H23.7702L6.29389 49.4736C6.55259 49.851 6.81957 50.2226 7.09466 50.5882L25.6829 32H27.5955L7.92249 51.6717C8.21352 52.0182 8.51208 52.3582 8.81795 52.6916L29.5082 32H31.4208L9.72828 53.6926C10.0474 54.0121 10.3735 54.3246 10.7063 54.63L33.3335 32H35.2462L11.6964 55.5525C12.0441 55.8438 12.3981 56.1275 12.7582 56.4033L37.1602 32H39.0728L13.8458 57.2298C14.2174 57.4983 14.5949 57.7585 14.9779 58.0103L40.9855 32H42.8981L16.1642 58.7366C16.5615 58.9801 16.9643 59.2146 17.3722 59.44L42.7872 34.0236L44.6999 32.1109L44.8108 32H46.7234L45.6549 33.0686L18.6626 60.0636C19.0902 60.2787 19.5227 60.4839 19.9598 60.6791L46.6139 34.0222L48.6361 32H50.5488L47.5689 34.9799L21.3544 61.1931C21.8182 61.3752 22.2864 61.5461 22.7584 61.7057L48.5252 35.939L52.4641 32H54.3768L49.4802 36.8966L24.2802 62.0966C24.784 62.2402 25.2914 62.371 25.8019 62.4889L50.4379 37.8516L56.2894 32H58.2021L51.3942 38.8079L27.463 62.7392C28.0221 62.8311 28.5837 62.9078 29.147 62.9691L52.3532 39.7643L60.1148 32H62.0288L53.3109 40.7206L30.9704 63.0584C31.3132 63.0816 31.6564 63.0992 31.9998 63.1111C32.2862 63.1056 32.5725 63.0962 32.8587 63.0827L54.2645 41.6769L63.0649 32.8738C63.0843 32.5828 63.0997 32.2915 63.1109 32C63.1109 23.7488 59.8331 15.8356 53.9987 10.0011C48.1642 4.16668 40.251 0.888916 31.9998 0.888916ZM9.72828 53.6926C9.66308 53.6302 9.59816 53.5675 9.5335 53.5046C9.59572 53.5708 9.65524 53.6398 9.71746 53.7034L9.72828 53.6926ZM0.957657 33.9614C0.973491 34.1748 0.991527 34.3881 1.01176 34.6012C0.994179 34.3875 0.971183 34.1765 0.957657 33.9614ZM62.9662 34.892L55.2222 42.6346L34.9053 62.9515C35.6332 62.8892 36.3587 62.8012 37.0804 62.6878L54.2645 45.5022L56.1772 43.5896L62.6496 37.1144C62.7814 36.3772 62.8865 35.6355 62.9648 34.8907L62.9662 34.892ZM62.5604 37.7082C62.5008 38.0329 62.4332 38.3562 62.3629 38.6781C62.4343 38.3559 62.5006 38.0326 62.5617 37.7082H62.5604ZM62.1437 39.5384L57.1349 44.5473L55.2222 46.4599L39.5246 62.1589C40.4489 61.9259 41.362 61.6506 42.261 61.3337L56.1785 47.4163L58.0912 45.5036L61.3308 42.2653C61.6432 41.3692 61.9145 40.4593 62.1437 39.5384ZM2.98935 43.2311C3.00862 43.2781 3.02801 43.325 3.04751 43.3718C3.02857 43.3245 3.00693 43.2798 2.98935 43.2325V43.2311ZM59.9633 45.5442L59.0475 46.4599L57.1349 48.3739L45.5101 59.9973C47.199 59.1778 48.8103 58.2072 50.3242 57.0972L57.1159 50.3042C58.2054 48.8051 59.1587 47.2116 59.9646 45.5428L59.9633 45.5442ZM4.2365 46.0325C4.27498 46.1066 4.31375 46.1805 4.35283 46.2543L4.2365 46.0325ZM5.73795 48.6702C5.79965 48.7652 5.86187 48.8599 5.92461 48.9542L5.7393 48.6702H5.73795ZM7.57215 51.2578C7.60898 51.3057 7.64596 51.3535 7.68307 51.4012L7.57215 51.2578ZM56.2286 51.4729C56.0527 51.6893 55.8918 51.9193 55.7105 52.133C55.8862 51.9153 56.0589 51.6952 56.2286 51.4729ZM53.8722 54.1092C53.6017 54.377 53.3122 54.6246 53.0322 54.8829C53.3165 54.6302 53.5961 54.3722 53.8709 54.1092H53.8722ZM51.7215 56.0354C51.4212 56.2816 51.1128 56.5183 50.8017 56.7523C51.1128 56.5191 51.4194 56.2801 51.7215 56.0354ZM43.3973 60.9428C43.2891 60.9861 43.1808 61.024 43.0726 61.0646C43.1811 61.0246 43.2893 60.984 43.3973 60.9428ZM37.873 62.5281C37.6295 62.5755 37.3901 62.6377 37.1426 62.6796C37.3867 62.6321 37.6302 62.5816 37.873 62.5281ZM34.5387 62.9935C34.1045 63.0286 33.6676 63.0543 33.228 63.0706C33.6654 63.0541 34.1024 63.0284 34.5387 62.9935Z" fill="url(#paint0_linear_703_6037)"/>
<defs>
<linearGradient id="paint0_linear_703_6037" x1="0.888672" y1="37.6566" x2="63.1109" y2="37.6566" gradientUnits="userSpaceOnUse">
<stop stop-color="#6601CD"/>
<stop offset="1" stop-color="#CB2AEF"/>
</linearGradient>
</defs>
</svg>
