<svg width="71" height="70" viewBox="0 0 71 70" fill="none" xmlns="http://www.w3.org/2000/svg">
<g clip-path="url(#clip0_703_6053)">
<path d="M63.9375 33.5417H52.5625C53.2917 32.5208 53.5833 31.2083 53.5833 29.8958V6.5625C53.7292 2.91667 50.8125 0 47.1667 0H23.8333C20.1875 0 17.2708 2.91667 17.2708 6.5625V30.0417C17.2708 31.3542 17.7083 32.6667 18.2917 33.6875H7.0625C3.41667 33.5417 0.5 36.4583 0.5 40.1042V63.5833C0.5 67.0833 3.41667 70 7.0625 70H30.5417C32.5833 70 34.3333 68.9792 35.6458 67.5208C36.8125 68.9792 38.7083 70 40.75 70H64.2292C67.875 70 70.7917 67.0833 70.7917 63.4375V40.1042C70.5 36.4583 67.5833 33.5417 63.9375 33.5417ZM20.1875 29.8958V6.5625C20.1875 4.52083 21.7917 2.91667 23.8333 2.91667H47.1667C49.2083 2.91667 50.8125 4.52083 50.8125 6.5625V30.0417C50.8125 32.0833 49.2083 33.6875 47.1667 33.6875H23.8333C21.7917 33.5417 20.1875 31.9375 20.1875 29.8958ZM30.3958 67.0833H7.0625C5.02083 67.0833 3.41667 65.4792 3.41667 63.4375V40.1042C3.41667 38.0625 5.02083 36.4583 7.0625 36.4583H30.5417C32.5833 36.4583 34.1875 38.0625 34.1875 40.1042V63.5833C34.0417 65.4792 32.4375 67.0833 30.3958 67.0833ZM67.5833 63.4375C67.5833 65.4792 65.9792 67.0833 63.9375 67.0833H40.6042C38.5625 67.0833 36.9583 65.4792 36.9583 63.4375V40.1042C36.9583 38.0625 38.5625 36.4583 40.6042 36.4583H64.0833C66.125 36.4583 67.7292 38.0625 67.7292 40.1042L67.5833 63.4375ZM41.625 25.5208C41.625 26.3958 41.0417 26.9792 40.1667 26.9792H30.8333C29.9583 26.9792 29.375 26.3958 29.375 25.5208C29.375 24.6458 29.9583 24.0625 30.8333 24.0625H34.0417V14.7292L32 17.0625C31.4167 17.6458 30.5417 17.7917 29.9583 17.2083C29.375 16.625 29.2292 15.75 29.8125 15.1667L34.4792 9.91667C34.9167 9.47917 35.5 9.33333 36.0833 9.47917C36.5208 9.77083 36.9583 10.3542 36.9583 10.9375V24.0625H40.1667C40.8958 24.0625 41.625 24.6458 41.625 25.5208ZM22.375 60.5208H15.0833C14.2083 60.5208 13.625 59.9375 13.625 59.0625V51.7708C13.625 50.8958 14.2083 50.3125 15.0833 50.3125H20.9167V45.9375H15.0833C14.2083 45.9375 13.625 45.3542 13.625 44.4792C13.625 43.6042 14.2083 43.0208 15.0833 43.0208H22.375C23.25 43.0208 23.8333 43.6042 23.8333 44.4792V51.7708C23.8333 52.6458 23.25 53.2292 22.375 53.2292H16.5417V57.6042H22.375C23.25 57.6042 23.8333 58.1875 23.8333 59.0625C23.8333 59.9375 23.25 60.5208 22.375 60.5208ZM57.0833 44.4792V51.7708V59.0625C57.0833 59.9375 56.5 60.5208 55.625 60.5208H48.9167C48.0417 60.5208 47.4583 59.9375 47.4583 59.0625C47.4583 58.1875 48.0417 57.6042 48.9167 57.6042H54.1667V53.2292H48.9167C48.0417 53.2292 47.4583 52.6458 47.4583 51.7708C47.4583 50.8958 48.0417 50.3125 48.9167 50.3125H54.1667V45.9375H48.9167C48.0417 45.9375 47.4583 45.3542 47.4583 44.4792C47.4583 43.6042 48.0417 43.0208 48.9167 43.0208H55.625C56.3542 43.0208 57.0833 43.6042 57.0833 44.4792Z" fill="white"/>
</g>
<defs>
<clipPath id="clip0_703_6053">
<rect width="70" height="70" fill="white" transform="translate(0.5)"/>
</clipPath>
</defs>
</svg>
