<svg width="71" height="70" viewBox="0 0 71 70" fill="none" xmlns="http://www.w3.org/2000/svg">
<path d="M15.8125 19.1875C15.8125 17.7033 17.0157 16.5 18.5 16.5C19.4301 16.5 20.2519 16.9697 20.7392 17.7002C21.745 19.2077 23.7823 19.6144 25.2898 18.6087C26.7973 17.603 27.204 15.5656 26.1983 14.0581C24.5455 11.5808 21.7153 9.9375 18.5 9.9375C13.3914 9.9375 9.25 14.0789 9.25 19.1875C9.25 23.8809 12.7455 27.7579 17.2752 28.3572C17.5084 28.4098 17.7511 28.4375 18.0003 28.4375H49.9828C51.7949 28.4375 53.2641 26.9685 53.2641 25.1563C53.2641 23.3441 51.7949 21.875 49.9828 21.875H18.5079H18.5C17.0157 21.875 15.8125 20.6718 15.8125 19.1875Z" fill="white"/>
<path d="M34.4062 10.9375C32.5941 10.9375 31.125 12.4066 31.125 14.2188C31.125 16.0309 32.5941 17.5 34.4062 17.5H58.469C60.2811 17.5 61.7503 16.0309 61.7503 14.2188C61.7503 12.4066 60.2811 10.9375 58.469 10.9375H34.4062ZM21.2812 32.8125C19.4691 32.8125 18 34.2816 18 36.0938C18 37.9059 19.4691 39.375 21.2812 39.375H58.4695C60.2816 39.375 61.7507 37.9059 61.7507 36.0938C61.7507 34.2816 60.2816 32.8125 58.4695 32.8125H21.2812ZM9.25 47.0312C9.25 45.2191 10.7191 43.75 12.5312 43.75H49.7186C51.5311 43.75 52.9998 45.2191 52.9998 47.0312C52.9998 48.8434 51.5311 50.3125 49.7186 50.3125H12.5312C10.7191 50.3125 9.25 48.8434 9.25 47.0312ZM21.2604 54.6914C19.4482 54.6914 17.9792 56.1606 17.9792 57.9727C17.9792 59.7848 19.4482 61.2539 21.2604 61.2539H58.448C60.2601 61.2539 61.7293 59.7848 61.7293 57.9727C61.7293 56.1606 60.2601 54.6914 58.448 54.6914H21.2604Z" fill="white"/>
</svg>
