<svg width="70" height="73" viewBox="0 0 70 73" fill="none" xmlns="http://www.w3.org/2000/svg">
<path fill-rule="evenodd" clip-rule="evenodd" d="M35.0311 11.5308C37.7825 11.5308 40.0134 8.94936 40.0134 5.76533C40.0134 2.58145 37.7825 0 35.0311 0C32.2793 0 30.0488 2.58145 30.0488 5.76533C30.0488 8.94936 32.2793 11.5308 35.0311 11.5308ZM29.6993 12.8032C26.171 12.8032 23.3335 16.1329 23.3335 20.286V37.9872C23.3335 41.4287 27.6861 41.4287 27.6861 37.9872V21.8014H28.7164V66.1207C28.7164 70.7219 34.5124 70.5865 34.5124 66.1207V40.3939H35.5107V66.1207C35.5107 70.5865 41.3385 70.7219 41.3385 66.1207V21.8014H42.3448V37.9872C42.3448 41.4345 46.6232 41.4549 46.6665 38.0489V40.9872C46.6665 44.4287 51.0191 44.4287 51.0191 40.9872V24.8014H52.0495V69.1207C52.0495 73.7219 57.8454 73.5865 57.8454 69.1207V43.3939H58.8437V69.1207C58.8437 73.5865 64.6715 73.7219 64.6715 69.1207V24.8014H65.6778V40.9872C65.6778 44.4552 70.0076 44.4551 69.9998 40.9872V23.3919C69.9998 19.5623 67.4298 15.8111 63.5559 15.8111L53.0323 15.8032C49.5257 15.8032 46.7014 19.0921 46.6668 23.2096V20.3919C46.6668 16.5623 44.0968 12.8111 40.2229 12.8111L29.6993 12.8032ZM11.6976 14.5308C14.449 14.5308 16.6799 11.9493 16.6799 8.7653C16.6799 5.58142 14.449 2.99997 11.6976 2.99997C8.94584 2.99997 6.71533 5.58142 6.71533 8.7653C6.71533 11.9493 8.94584 14.5308 11.6976 14.5308ZM6.36576 15.8031C2.83753 15.8031 0 19.1329 0 23.286V40.9872C0 44.4286 4.35256 44.4286 4.35256 40.9872V24.8014H5.38295V69.1207C5.38295 73.7219 11.1789 73.5865 11.1789 69.1207V43.3939H12.1772V69.1207C12.1772 73.5865 18.005 73.7219 18.005 69.1207V24.8014H19.0113V40.9872C19.0113 44.4552 23.3411 44.455 23.3333 40.9872V23.3919C23.3333 19.5622 20.7633 15.8111 16.8894 15.8111L6.36576 15.8031ZM63.3464 8.76533C63.3464 11.9494 61.1155 14.5308 58.3641 14.5308C55.6123 14.5308 53.3818 11.9494 53.3818 8.76533C53.3818 5.58145 55.6123 3 58.3641 3C61.1155 3 63.3464 5.58145 63.3464 8.76533Z" fill="white"/>
</svg>
